<svg height="512" viewBox="0 0 512 512" width="512" xmlns="http://www.w3.org/2000/svg"><g id="Flat"><g fill="#4384c3"><path d="m248 376h16v48h-16z"/><path d="m224 376h16v48h-16z"/><path d="m272 376h16v48h-16z"/></g><path d="m288 360v24h-64v-24l16-24-9.95-54.68994-3.27-18a29.70322 29.70322 0 0 1 8.22-26.31006 29.69495 29.69495 0 0 1 42 0 29.67605 29.67605 0 0 1 8.46 17.30005 29.337 29.337 0 0 1 -.24 9.01l-3.97 21.83984-9.25 50.85011z" fill="#529ddf"/><path d="m285.22 263.31006-3.97 21.83984a29.70775 29.70775 0 0 1 -42.12 3.8301l-9.08-7.66992-3.27-18a29.70322 29.70322 0 0 1 8.22-26.31008 29.34165 29.34165 0 0 1 10.5-6.77l22.76 8.1a29.684 29.684 0 0 1 17.2 15.97009 29.337 29.337 0 0 1 -.24 9.00997z" fill="#4384c3"/><path d="m282.93973 247.26829v-.00005a29.69569 29.69569 0 0 0 -18.71191-20.2394l-69.60549-24.77622-4.4791-16.95642a39.59687 39.59687 0 0 0 -18.48531-24.17915l-8.26931-4.77429a39.59689 39.59689 0 0 0 -38.41323-.65668l-.83864.44669a39.59689 39.59689 0 0 0 -20.925 37.07452 39.59694 39.59694 0 0 0 19.74134 32.166l8.8477 5.10822a39.59691 39.59691 0 0 0 29.91042 3.99205l16.96043-4.47977 56.42951 47.69167a29.69565 29.69565 0 0 0 26.90526 5.98967 29.69566 29.69566 0 0 0 20.93333-36.40684z" fill="#529ddf"/><path d="m488 256c0 128.13-103.87 232-232 232v-32c110.46 0 200-89.54 200-200s-89.54-200-200-200a199.91054 199.91054 0 0 0 -173.23 99.98l-27.72-16a231.9238 231.9238 0 0 1 200.95-115.98c128.13 0 232 103.87 232 232z" fill="#7ab355"/><path d="m256 456v32c-128.13 0-232-103.87-232-232a230.9208 230.9208 0 0 1 31.05-116.02l27.72 16a199.00815 199.00815 0 0 0 -26.77 100.02c0 110.46 89.54 200 200 200z" fill="#e04446"/><path d="m361.74 353.74 14.26 22.26h-56v-64l19.09009 19.09a112.02931 112.02931 0 0 0 -121.82009-180.21l-11.06-30.03a144.01191 144.01191 0 0 1 155.53 232.89z" fill="#7ab355"/><path d="m151.60059 219.78662a23.63241 23.63241 0 0 1 -11.79883-3.16064l-8.84912-5.10889 8-13.85645 8.84863 5.1084a7.66491 7.66491 0 0 0 5.73682.76612l15.51757-4.09912 4.08594 15.46972-15.5166 4.09863a23.59031 23.59031 0 0 1 -6.02441.78223zm-32.41163-27.438a23.67556 23.67556 0 0 1 12.46973-22.09375l7.52051 14.12213a7.62329 7.62329 0 0 0 -4.01367 7.11328z" fill="#90bbdf"/><circle cx="256" cy="256" fill="#4384c3" r="8"/></g></svg>
